<svg version="1.1" viewBox="0.0 0.0 960.0 720.0" fill="none" stroke="none" stroke-linecap="square" stroke-miterlimit="10" xmlns:xlink="http://www.w3.org/1999/xlink" xmlns="http://www.w3.org/2000/svg"><clipPath id="p.0"><path d="m0 0l960.0 0l0 720.0l-960.0 0l0 -720.0z" clip-rule="nonzero"/></clipPath><g clip-path="url(#p.0)"><path fill="#000000" fill-opacity="0.0" d="m0 0l960.0 0l0 720.0l-960.0 0z" fill-rule="evenodd"/><g filter="url(#shadowFilter-p.1)"><use xlink:href="#p.1" transform="matrix(1.0 0.0 0.0 1.0 -2.571150393700787 3.0641779527559314)"/></g><defs><filter id="shadowFilter-p.1" filterUnits="userSpaceOnUse"><feGaussianBlur in="SourceAlpha" stdDeviation="2.0" result="blur"/><feComponentTransfer in="blur" color-interpolation-filters="sRGB"><feFuncR type="linear" slope="0" intercept="0.0"/><feFuncG type="linear" slope="0" intercept="0.0"/><feFuncB type="linear" slope="0" intercept="0.0"/><feFuncA type="linear" slope="0.4" intercept="0"/></feComponentTransfer></filter></defs><g id="p.1"><path fill="#000000" fill-opacity="0.0" d="m108.0 269.0525l745.5748 0l0 179.05511l-745.5748 0z" fill-rule="evenodd"/><path fill="#a64d79" d="m273.7171 330.93692l-22.59375 62.203125l-9.234375 0l26.015625 -68.25l5.953125 0l-0.140625 6.046875zm18.9375 62.203125l-22.640625 -62.203125l-0.140625 -6.046875l5.953125 0l26.109375 68.25l-9.28125 0zm-1.171875 -25.265625l0 7.40625l-38.34375 0l0 -7.40625l38.34375 0zm47.8125 11.8125q0 -1.875 -0.828125 -3.484375q-0.8125 -1.625 -3.328125 -2.953125q-2.5 -1.34375 -7.515625 -2.328125q-4.21875 -0.890625 -7.625 -2.109375q-3.390625 -1.21875 -5.765625 -2.953125q-2.359375 -1.734375 -3.625 -4.078125q-1.265625 -2.34375 -1.265625 -5.484375q0 -3.0 1.328125 -5.671875q1.34375 -2.671875 3.796875 -4.734375q2.46875 -2.0625 5.9375 -3.234375q3.46875 -1.171875 7.734375 -1.171875q6.09375 0 10.40625 2.15625q4.3125 2.15625 6.609375 5.75q2.296875 3.578125 2.296875 7.9375l-8.671875 0q0 -2.109375 -1.25 -4.09375q-1.234375 -2.0 -3.609375 -3.3125q-2.359375 -1.3125 -5.78125 -1.3125q-3.609375 0 -5.84375 1.109375q-2.21875 1.09375 -3.234375 2.78125q-1.0 1.6875 -1.0 3.5625q0 1.40625 0.484375 2.515625q0.5 1.09375 1.765625 2.015625q1.265625 0.90625 3.5625 1.703125q2.296875 0.796875 5.859375 1.59375q6.234375 1.40625 10.265625 3.375q4.03125 1.96875 6.0 4.828125q1.96875 2.859375 1.96875 6.9375q0 3.328125 -1.390625 6.09375q-1.375 2.765625 -3.984375 4.765625q-2.59375 1.984375 -6.1875 3.09375q-3.578125 1.09375 -8.03125 1.09375q-6.703125 0 -11.34375 -2.390625q-4.640625 -2.390625 -7.03125 -6.1875q-2.390625 -3.796875 -2.390625 -8.015625l8.71875 0q0.1875 3.5625 2.0625 5.65625q1.875 2.078125 4.59375 2.953125q2.71875 0.859375 5.390625 0.859375q3.5625 0 5.96875 -0.9375q2.421875 -0.9375 3.6875 -2.578125q1.265625 -1.640625 1.265625 -3.75zm34.265625 8.203125l14.109375 -45.46875l9.28125 0l-20.34375 58.546875q-0.703125 1.875 -1.859375 4.046875q-1.140625 2.1875 -2.921875 4.15625q-1.78125 1.96875 -4.296875 3.203125q-2.5 1.25 -5.96875 1.25q-1.03125 0 -2.625 -0.28125q-1.59375 -0.28125 -2.25 -0.46875l-0.046875 -7.03125q0.375 0.046875 1.1875 0.109375q0.828125 0.078125 1.15625 0.078125q2.953125 0 5.015625 -0.78125q2.0625 -0.765625 3.484375 -2.578125q1.4375 -1.796875 2.46875 -4.9375l3.609375 -9.84375zm-10.359375 -45.46875l13.171875 39.375l2.25 9.140625l-6.234375 3.1875l-18.65625 -51.703125l9.46875 0zm50.953125 -21.28125l0 72.0l-8.71875 0l0 -72.0l8.71875 0zm11.625 47.203125l0 -1.078125q0 -5.484375 1.59375 -10.1875q1.59375 -4.71875 4.59375 -8.203125q3.0 -3.5 7.265625 -5.4375q4.265625 -1.953125 9.5625 -1.953125q5.34375 0 9.625 1.953125q4.296875 1.9375 7.3125 5.4375q3.03125 3.484375 4.625 8.203125q1.59375 4.703125 1.59375 10.1875l0 1.078125q0 5.484375 -1.59375 10.171875q-1.59375 4.6875 -4.625 8.1875q-3.015625 3.484375 -7.265625 5.4375q-4.234375 1.9375 -9.578125 1.9375q-5.34375 0 -9.609375 -1.9375q-4.265625 -1.953125 -7.296875 -5.4375q-3.015625 -3.5 -4.609375 -8.1875q-1.59375 -4.6875 -1.59375 -10.171875zm8.671875 -1.078125l0 1.078125q0 3.796875 0.890625 7.15625q0.890625 3.34375 2.6875 5.921875q1.8125 2.578125 4.53125 4.0625q2.71875 1.46875 6.328125 1.46875q3.5625 0 6.25 -1.46875q2.703125 -1.484375 4.484375 -4.0625q1.78125 -2.578125 2.6875 -5.921875q0.921875 -3.359375 0.921875 -7.15625l0 -1.078125q0 -3.75 -0.921875 -7.09375q-0.90625 -3.359375 -2.71875 -5.953125q-1.796875 -2.609375 -4.5 -4.109375q-2.6875 -1.5 -6.296875 -1.5q-3.5625 0 -6.265625 1.5q-2.6875 1.5 -4.5 4.109375q-1.796875 2.59375 -2.6875 5.953125q-0.890625 3.34375 -0.890625 7.09375zm57.046875 -14.015625l0 39.890625l-8.671875 0l0 -50.71875l8.203125 0l0.46875 10.828125zm-2.0625 12.609375l-3.609375 -0.140625q0.046875 -5.203125 1.546875 -9.625q1.5 -4.4375 4.21875 -7.71875q2.71875 -3.28125 6.484375 -5.078125q3.78125 -1.8125 8.375 -1.8125q3.75 0 6.75 1.015625q3.0 1.0 5.125 3.203125q2.140625 2.203125 3.265625 5.703125q1.125 3.484375 1.125 8.5l0 33.234375l-8.71875 0l0 -33.328125q0 -3.984375 -1.171875 -6.390625q-1.171875 -2.421875 -3.421875 -3.515625q-2.25 -1.109375 -5.53125 -1.109375q-3.234375 0 -5.890625 1.359375q-2.640625 1.359375 -4.546875 3.75q-1.890625 2.390625 -2.953125 5.46875q-1.046875 3.0625 -1.046875 6.484375z" fill-rule="nonzero"/><path fill="#741b47" d="m561.4827 361.21817l-17.296875 0l-0.09375 -7.265625l15.703125 0q3.890625 0 6.796875 -1.3125q2.90625 -1.3125 4.515625 -3.765625q1.625 -2.46875 1.625 -5.890625q0 -3.75 -1.4375 -6.109375q-1.421875 -2.375 -4.359375 -3.46875q-2.921875 -1.109375 -7.421875 -1.109375l-13.3125 0l0 60.84375l-9.046875 0l0 -68.25l22.359375 0q5.25 0 9.375 1.0625q4.125 1.046875 7.0 3.28125q2.890625 2.21875 4.390625 5.640625q1.5 3.421875 1.5 8.203125q0 4.21875 -2.15625 7.625q-2.15625 3.390625 -5.984375 5.546875q-3.8125 2.15625 -8.921875 2.765625l-3.234375 2.203125zm-0.421875 31.921875l-20.4375 0l5.109375 -7.359375l15.328125 0q4.3125 0 7.328125 -1.5q3.03125 -1.5 4.625 -4.234375q1.59375 -2.75 1.59375 -6.5q0 -3.796875 -1.359375 -6.5625q-1.359375 -2.765625 -4.265625 -4.265625q-2.90625 -1.5 -7.5 -1.5l-12.890625 0l0.09375 -7.265625l17.625 0l1.921875 2.625q4.921875 0.421875 8.34375 2.796875q3.421875 2.359375 5.21875 6.015625q1.8125 3.65625 1.8125 8.0625q0 6.375 -2.796875 10.765625q-2.78125 4.375 -7.84375 6.65625q-5.0625 2.265625 -11.90625 2.265625zm44.015625 -72.0l0 72.0l-8.71875 0l0 -72.0l8.71875 0zm11.625 47.203125l0 -1.078125q0 -5.484375 1.59375 -10.1875q1.59375 -4.71875 4.59375 -8.203125q3.0 -3.5 7.265625 -5.4375q4.265625 -1.953125 9.5625 -1.953125q5.34375 0 9.625 1.953125q4.296875 1.9375 7.3125 5.4375q3.03125 3.484375 4.625 8.203125q1.59375 4.703125 1.59375 10.1875l0 1.078125q0 5.484375 -1.59375 10.171875q-1.59375 4.6875 -4.625 8.1875q-3.015625 3.484375 -7.265625 5.4375q-4.234375 1.9375 -9.578125 1.9375q-5.34375 0 -9.609375 -1.9375q-4.265625 -1.953125 -7.296875 -5.4375q-3.015625 -3.5 -4.609375 -8.1875q-1.59375 -4.6875 -1.59375 -10.171875zm8.671875 -1.078125l0 1.078125q0 3.796875 0.890625 7.15625q0.890625 3.34375 2.6875 5.921875q1.8125 2.578125 4.53125 4.0625q2.71875 1.46875 6.328125 1.46875q3.5625 0 6.25 -1.46875q2.703125 -1.484375 4.484375 -4.0625q1.78125 -2.578125 2.6875 -5.921875q0.921875 -3.359375 0.921875 -7.15625l0 -1.078125q0 -3.75 -0.921875 -7.09375q-0.90625 -3.359375 -2.71875 -5.953125q-1.796875 -2.609375 -4.5 -4.109375q-2.6875 -1.5 -6.296875 -1.5q-3.5625 0 -6.265625 1.5q-2.6875 1.5 -4.5 4.109375q-1.796875 2.59375 -2.6875 5.953125q-0.890625 3.34375 -0.890625 7.09375zm81.234375 -24.84375l7.875 0l0 49.640625q0 6.703125 -2.71875 11.4375q-2.71875 4.734375 -7.578125 7.1875q-4.84375 2.46875 -11.171875 2.46875q-2.625 0 -6.171875 -0.828125q-3.53125 -0.8125 -6.9375 -2.765625q-3.390625 -1.9375 -5.6875 -5.21875l4.546875 -5.15625q3.1875 3.84375 6.671875 5.34375q3.5 1.5 6.921875 1.5q4.125 0 7.125 -1.546875q3.0 -1.546875 4.65625 -4.578125q1.671875 -3.015625 1.671875 -7.421875l0 -38.90625l0.796875 -11.15625zm-34.921875 25.921875l0 -0.984375q0 -5.8125 1.375 -10.5625q1.390625 -4.765625 3.984375 -8.1875q2.609375 -3.421875 6.3125 -5.265625q3.703125 -1.859375 8.34375 -1.859375q4.78125 0 8.359375 1.671875q3.59375 1.65625 6.09375 4.828125q2.515625 3.15625 3.96875 7.609375q1.453125 4.453125 2.015625 10.078125l0 4.3125q-0.515625 5.578125 -2.0 10.03125q-1.46875 4.453125 -3.984375 7.59375q-2.5 3.140625 -6.109375 4.8125q-3.609375 1.65625 -8.4375 1.65625q-4.546875 0 -8.234375 -1.921875q-3.671875 -1.921875 -6.296875 -5.390625q-2.625 -3.46875 -4.015625 -8.171875q-1.375 -4.71875 -1.375 -10.25zm8.671875 -0.984375l0 0.984375q0 3.796875 0.765625 7.125q0.78125 3.328125 2.390625 5.859375q1.625 2.53125 4.15625 3.96875q2.53125 1.421875 6.046875 1.421875q4.3125 0 7.125 -1.828125q2.8125 -1.828125 4.46875 -4.828125q1.671875 -3.0 2.609375 -6.515625l0 -11.296875q-0.515625 -2.578125 -1.578125 -4.984375q-1.046875 -2.421875 -2.71875 -4.3125q-1.65625 -1.90625 -4.09375 -3.03125q-2.4375 -1.125 -5.71875 -1.125q-3.5625 0 -6.125 1.484375q-2.546875 1.46875 -4.171875 4.03125q-1.609375 2.546875 -2.390625 5.90625q-0.765625 3.34375 -0.765625 7.140625z" fill-rule="nonzero"/></g></g></svg>